<svg width="7" height="14" viewBox="0 0 7 14" fill="none" xmlns="http://www.w3.org/2000/svg">
<path d="M3.47788 0.806351C3.66235 0.806397 3.83926 0.892093 3.96968 1.04459L6.7521 4.29702C6.87881 4.45037 6.94893 4.65576 6.94734 4.86895C6.94576 5.08215 6.8726 5.28609 6.74363 5.43684C6.61466 5.5876 6.44019 5.67311 6.25781 5.67496C6.07542 5.67682 5.89971 5.59486 5.76852 5.44675L3.47788 2.76919L1.18725 5.44675C1.05606 5.59486 0.880347 5.67682 0.697961 5.67496C0.515576 5.67311 0.341109 5.5876 0.212138 5.43684C0.0831665 5.28609 0.0100102 5.08215 0.00842528 4.86895C0.0068404 4.65576 0.0769539 4.45037 0.203664 4.29702L2.98609 1.04459C3.11651 0.892093 3.29341 0.806397 3.47788 0.806351ZM0.203664 9.17565C0.33411 9.02322 0.511008 8.93758 0.695458 8.93758C0.879908 8.93758 1.05681 9.02322 1.18725 9.17565L3.47788 11.8532L5.76852 9.17565C5.89971 9.02754 6.07542 8.94558 6.25781 8.94743C6.44019 8.94929 6.61466 9.0348 6.74363 9.18556C6.8726 9.33631 6.94576 9.54025 6.94734 9.75344C6.94893 9.96664 6.87881 10.172 6.7521 10.3254L3.96968 13.5778C3.83923 13.7302 3.66233 13.8159 3.47788 13.8159C3.29343 13.8159 3.11654 13.7302 2.98609 13.5778L0.203664 10.3254C0.0732582 10.1729 0 9.96612 0 9.75052C0 9.53491 0.0732582 9.32813 0.203664 9.17565Z" fill="#BFBFBF"/>
</svg>
