<svg width="22" height="18" viewBox="0 0 22 18" fill="none" xmlns="http://www.w3.org/2000/svg">
<path d="M7.2 10.8C8.87744 10.8 10.2869 11.9473 10.6866 13.5H20.7C21.197 13.5 21.6 13.903 21.6 14.4C21.6 14.8419 21.2816 15.2093 20.8618 15.2854L20.7 15.3L10.6861 15.3018C10.2858 16.8536 8.87679 18 7.2 18C5.52321 18 4.11417 16.8536 3.71389 15.3018L0.9 15.3C0.402948 15.3 0 14.897 0 14.4C0 13.9581 0.318384 13.5907 0.738216 13.5146L0.9 13.5H3.71342C4.11307 11.9473 5.52256 10.8 7.2 10.8ZM7.2 12.6C6.2059 12.6 5.4 13.4059 5.4 14.4C5.4 15.3941 6.2059 16.2 7.2 16.2C8.1941 16.2 9 15.3941 9 14.4C9 13.4059 8.1941 12.6 7.2 12.6ZM14.4 0C16.0774 0 17.487 1.14728 17.8866 2.69996L20.7 2.7C21.197 2.7 21.6 3.10295 21.6 3.6C21.6 4.04183 21.2816 4.4093 20.8618 4.48549L20.7 4.5L17.8861 4.50184C17.4859 6.05362 16.0769 7.2 14.4 7.2C12.7232 7.2 11.3142 6.05362 10.9139 4.50184L0.9 4.5C0.402948 4.5 0 4.09705 0 3.6C0 3.15817 0.318384 2.7907 0.738216 2.71451L0.9 2.7L10.9134 2.69996C11.3131 1.14728 12.7226 0 14.4 0ZM14.4 1.8C13.4059 1.8 12.6 2.6059 12.6 3.6C12.6 4.5941 13.4059 5.4 14.4 5.4C15.3941 5.4 16.2 4.5941 16.2 3.6C16.2 2.6059 15.3941 1.8 14.4 1.8Z" fill="#3C86F4"/>
</svg>
