<svg width="17" height="12" viewBox="0 0 17 12" fill="none" xmlns="http://www.w3.org/2000/svg">
<path d="M11.3 10.2C11.797 10.2 12.2 10.6029 12.2 11.1C12.2 11.5971 11.797 12 11.3 12H5.89995C5.40289 12 4.99995 11.5971 4.99995 11.1C4.99995 10.6029 5.40289 10.2 5.89995 10.2H11.3ZM13.7 5.1C14.197 5.1 14.6 5.50294 14.6 6C14.6 6.49706 14.197 6.9 13.7 6.9H3.49995C3.0029 6.9 2.59995 6.49706 2.59995 6C2.59995 5.50294 3.0029 5.1 3.49995 5.1H13.7ZM16.1 0C16.597 0 17 0.402944 17 0.9C17 1.39706 16.597 1.8 16.1 1.8H1.09995C0.602895 1.8 0.199951 1.39706 0.199951 0.9C0.199951 0.402944 0.602895 0 1.09995 0H16.1Z" fill="#BFBFBF"/>
<path d="M11.3 10.2C11.797 10.2 12.2 10.6029 12.2 11.1C12.2 11.5971 11.797 12 11.3 12H5.89995C5.40289 12 4.99995 11.5971 4.99995 11.1C4.99995 10.6029 5.40289 10.2 5.89995 10.2H11.3ZM13.7 5.1C14.197 5.1 14.6 5.50294 14.6 6C14.6 6.49706 14.197 6.9 13.7 6.9H3.49995C3.0029 6.9 2.59995 6.49706 2.59995 6C2.59995 5.50294 3.0029 5.1 3.49995 5.1H13.7ZM16.1 0C16.597 0 17 0.402944 17 0.9C17 1.39706 16.597 1.8 16.1 1.8H1.09995C0.602895 1.8 0.199951 1.39706 0.199951 0.9C0.199951 0.402944 0.602895 0 1.09995 0H16.1Z" fill="#BFBFBF"/>
</svg>
