<svg width="16" height="17" viewBox="0 0 16 17" fill="none" xmlns="http://www.w3.org/2000/svg">
<rect width="16" height="16" transform="translate(0 0.5)" fill="white"/>
<path d="M7 3.5H9C9 2.94772 8.55228 2.5 8 2.5C7.44772 2.5 7 2.94772 7 3.5ZM6 3.5C6 2.39543 6.89543 1.5 8 1.5C9.10457 1.5 10 2.39543 10 3.5H14C14.2761 3.5 14.5 3.72386 14.5 4C14.5 4.27614 14.2761 4.5 14 4.5H13.4364L12.2313 13.3378C12.0624 14.5765 11.0044 15.5 9.75422 15.5H6.24578C4.99561 15.5 3.93762 14.5765 3.76871 13.3378L2.56355 4.5H2C1.72386 4.5 1.5 4.27614 1.5 4C1.5 3.72386 1.72386 3.5 2 3.5H6ZM7 7C7 6.72386 6.77614 6.5 6.5 6.5C6.22386 6.5 6 6.72386 6 7V12C6 12.2761 6.22386 12.5 6.5 12.5C6.77614 12.5 7 12.2761 7 12V7ZM9.5 6.5C9.77614 6.5 10 6.72386 10 7V12C10 12.2761 9.77614 12.5 9.5 12.5C9.22386 12.5 9 12.2761 9 12V7C9 6.72386 9.22386 6.5 9.5 6.5ZM4.75954 13.2027C4.86089 13.9459 5.49568 14.5 6.24578 14.5H9.75422C10.5043 14.5 11.1391 13.9459 11.2405 13.2027L12.4272 4.5H3.57281L4.75954 13.2027Z" fill="#838383"/>
</svg>
