<svg width="20" height="18" viewBox="0 0 20 18" fill="none" xmlns="http://www.w3.org/2000/svg">
<path d="M11.2882 0.665955C11.2036 0.581319 11.1075 0.516215 11.0001 0.470642C10.8927 0.425069 10.7771 0.402283 10.6534 0.402283C10.4842 0.402283 10.3312 0.441345 10.1945 0.519471C10.0577 0.597595 9.95032 0.703389 9.8722 0.836853C9.79407 0.970317 9.75501 1.12168 9.75501 1.29095C9.75501 1.53835 9.8429 1.74994 10.0187 1.92572L17.6554 9.40619V8.36126L10.0187 15.8418C9.8429 16.024 9.75501 16.2356 9.75501 16.4765C9.75501 16.6457 9.79407 16.7971 9.8722 16.9306C9.95032 17.064 10.0577 17.1698 10.1945 17.248C10.3312 17.3261 10.4842 17.3652 10.6534 17.3652C10.8943 17.3652 11.1059 17.2773 11.2882 17.1015L19.0226 9.5429C19.1137 9.45827 19.1837 9.35899 19.2325 9.24505C19.2814 9.13113 19.3058 9.01231 19.3058 8.88861C19.3058 8.64121 19.2114 8.41986 19.0226 8.22455L11.2882 0.665955Z" fill="white" fill-opacity="0.85"/>
</svg>
