<svg width="30" height="14" viewBox="0 0 30 14" fill="none" xmlns="http://www.w3.org/2000/svg">
<g clip-path="url(#clip0_2_5215)">
<path d="M5.75318 13.2561H21.1047C21.938 13.2561 22.6998 13.1894 23.3899 13.0559C24.08 12.9224 24.6757 12.605 25.177 12.1037C25.6718 11.609 25.9859 11.0182 26.1194 10.3313C26.2529 9.64445 26.3196 8.88436 26.3196 8.05102V5.24829C26.3196 4.41496 26.2529 3.65487 26.1194 2.96801C25.9859 2.28117 25.6718 1.69035 25.177 1.19555C24.6757 0.694254 24.08 0.376872 23.3899 0.243408C22.6998 0.109945 21.938 0.0432129 21.1047 0.0432129H5.73365C4.91333 0.0432129 4.15975 0.111572 3.4729 0.248291C2.78605 0.38501 2.19198 0.700764 1.69068 1.19555C1.19588 1.69686 0.881755 2.28931 0.748291 2.9729C0.614827 3.6565 0.548096 4.40519 0.548096 5.21899V8.05102C0.548096 8.88436 0.6132 9.64445 0.743408 10.3313C0.873616 11.0182 1.18937 11.609 1.69068 12.1037C2.19198 12.605 2.78605 12.9224 3.4729 13.0559C4.15975 13.1894 4.91984 13.2561 5.75318 13.2561ZM5.48951 11.6838C4.9882 11.6838 4.49503 11.6366 4.01001 11.5422C3.52499 11.4478 3.13274 11.2541 2.83326 10.9612C2.54028 10.6617 2.34822 10.2727 2.25708 9.79419C2.16594 9.31567 2.12037 8.82251 2.12037 8.31469V5.00415C2.12037 4.48983 2.16594 3.99015 2.25708 3.50512C2.34822 3.0201 2.54028 2.63111 2.83326 2.33813C3.12622 2.03865 3.51847 1.84334 4.01001 1.75219C4.50155 1.66105 5.00448 1.61548 5.5188 1.61548H21.3782C21.8795 1.61548 22.3726 1.66268 22.8577 1.75708C23.3427 1.85148 23.7317 2.04517 24.0247 2.33813C24.3242 2.63761 24.5195 3.02661 24.6106 3.50512C24.7017 3.98364 24.7473 4.47355 24.7473 4.97485V8.31469C24.7473 8.82251 24.7017 9.31567 24.6106 9.79419C24.5195 10.2727 24.3242 10.6617 24.0247 10.9612C23.7317 11.2541 23.3427 11.4478 22.8577 11.5422C22.3726 11.6366 21.8795 11.6838 21.3782 11.6838H5.48951ZM27.6477 9.17407C27.9081 9.15454 28.1783 9.03898 28.4583 8.82739C28.7382 8.61581 28.9742 8.32447 29.1663 7.95337C29.3583 7.58228 29.4543 7.14608 29.4543 6.64477C29.4543 6.14999 29.3583 5.71704 29.1663 5.34594C28.9742 4.97485 28.7382 4.68188 28.4583 4.46704C28.1783 4.2522 27.9081 4.13826 27.6477 4.12524V9.17407Z" fill="white"/>
<path d="M4.97193 10.551H16.8079C17.1464 10.551 17.4199 10.5233 17.6282 10.468C17.8365 10.4127 18.0091 10.3166 18.1458 10.1799C18.3997 9.92602 18.5266 9.48006 18.5266 8.84204V4.45727C18.5266 4.11873 18.4973 3.84529 18.4387 3.63696C18.3801 3.42863 18.2825 3.2561 18.1458 3.11938C18.0091 2.98266 17.8349 2.88663 17.6233 2.8313C17.4117 2.77596 17.1399 2.74829 16.8079 2.74829H5.00122C4.64966 2.74829 4.36809 2.77596 4.1565 2.8313C3.94491 2.88663 3.77076 2.98266 3.63404 3.11938C3.49732 3.2561 3.40129 3.43025 3.34595 3.64184C3.29061 3.85343 3.26294 4.13175 3.26294 4.4768V8.84204C3.26294 9.18058 3.29061 9.45402 3.34595 9.66235C3.40129 9.87068 3.49732 10.0432 3.63404 10.1799C3.77076 10.3166 3.94491 10.4127 4.1565 10.468C4.36809 10.5233 4.6399 10.551 4.97193 10.551Z" fill="white"/>
</g>
<defs>
<clipPath id="clip0_2_5215">
<rect width="28.9062" height="13.2129" fill="white" transform="translate(0.548096 0.0432129)"/>
</clipPath>
</defs>
</svg>
