<svg width="25" height="20" viewBox="0 0 25 20" fill="none" xmlns="http://www.w3.org/2000/svg">
<g clip-path="url(#clip0_2_4020)">
<path d="M3.7959 19.1567H21.6475C22.6631 19.1567 23.4281 18.9044 23.9424 18.3999C24.4567 17.8954 24.7139 17.1385 24.7139 16.1294V5.90478C24.7139 4.90218 24.4567 4.1486 23.9424 3.64404C23.4281 3.13949 22.6631 2.88721 21.6475 2.88721H18.8545C18.5941 2.88721 18.3858 2.86768 18.2295 2.82861C18.0732 2.78955 17.9349 2.72282 17.8145 2.62842C17.694 2.53401 17.5589 2.40543 17.4092 2.24267L16.6279 1.36377C16.387 1.09684 16.1201 0.891765 15.8272 0.748535C15.5342 0.605306 15.137 0.533691 14.6357 0.533691H10.7393C10.238 0.533691 9.84245 0.605306 9.55273 0.748535C9.26302 0.891765 8.99447 1.09684 8.74707 1.36377L7.96582 2.24267C7.75098 2.48356 7.55241 2.6512 7.37011 2.7456C7.18783 2.84001 6.90463 2.88721 6.52051 2.88721H3.7959C2.77376 2.88721 2.00716 3.13949 1.49609 3.64404C0.985026 4.1486 0.729492 4.90218 0.729492 5.90478V16.1294C0.729492 17.1385 0.985026 17.8954 1.49609 18.3999C2.00716 18.9044 2.77376 19.1567 3.7959 19.1567ZM12.7217 16.2759C11.9795 16.2759 11.2861 16.1392 10.6416 15.8657C9.99707 15.5923 9.43229 15.2115 8.94726 14.7232C8.46223 14.2349 8.08138 13.6684 7.80469 13.0239C7.528 12.3794 7.38965 11.6828 7.38965 10.9341C7.38965 10.1919 7.528 9.49853 7.80469 8.854C8.08138 8.20947 8.46223 7.64307 8.94726 7.15478C9.43229 6.6665 9.99707 6.28564 10.6416 6.01221C11.2861 5.73877 11.9795 5.60205 12.7217 5.60205C13.7048 5.60205 14.5999 5.83968 15.4072 6.31494C16.2145 6.7902 16.8558 7.43148 17.3311 8.23877C17.8064 9.04606 18.044 9.9445 18.044 10.9341C18.044 11.6828 17.9073 12.3794 17.6338 13.0239C17.3603 13.6684 16.9795 14.2349 16.4912 14.7232C16.0029 15.2115 15.4365 15.5923 14.792 15.8657C14.1475 16.1392 13.4574 16.2759 12.7217 16.2759ZM12.7217 14.7915C13.4313 14.7915 14.0775 14.619 14.6602 14.2739C15.2429 13.9289 15.7067 13.465 16.0518 12.8823C16.3968 12.2996 16.5693 11.6502 16.5693 10.9341C16.5693 10.2245 16.3968 9.57829 16.0518 8.9956C15.7067 8.41292 15.2429 7.94743 14.6602 7.59912C14.0775 7.25081 13.4313 7.07666 12.7217 7.07666C12.012 7.07666 11.3659 7.25081 10.7832 7.59912C10.2005 7.94743 9.73503 8.41292 9.38672 8.9956C9.03842 9.57829 8.86426 10.2245 8.86426 10.9341C8.86426 11.6502 9.03842 12.2996 9.38672 12.8823C9.73503 13.465 10.2005 13.9289 10.7832 14.2739C11.3659 14.619 12.012 14.7915 12.7217 14.7915ZM18.6983 7.34033C18.6983 7.0083 18.8236 6.71696 19.0742 6.46631C19.3249 6.21566 19.6227 6.09033 19.9678 6.09033C20.2998 6.09033 20.5911 6.21566 20.8418 6.46631C21.0925 6.71696 21.2178 7.0083 21.2178 7.34033C21.2178 7.69189 21.0925 7.98811 20.8418 8.229C20.5911 8.46989 20.2998 8.59033 19.9678 8.59033C19.6227 8.59684 19.3249 8.47803 19.0742 8.23389C18.8236 7.98974 18.6983 7.69189 18.6983 7.34033Z" fill="white" fill-opacity="0.85"/>
</g>
<defs>
<clipPath id="clip0_2_4020">
<rect width="23.9844" height="19.248" fill="white" transform="translate(0.729492 0.533691)"/>
</clipPath>
</defs>
</svg>
