<svg width="24" height="18" viewBox="0 0 24 18" fill="none" xmlns="http://www.w3.org/2000/svg">
<g clip-path="url(#clip0_2_16690)">
<path d="M11.8652 17.1191C11.9759 17.1191 12.0865 17.0882 12.1972 17.0264C12.3079 16.9645 12.4576 16.8392 12.6464 16.6504L15.0292 14.3652C15.1009 14.2936 15.1448 14.2073 15.1611 14.1064C15.1774 14.0055 15.1497 13.9128 15.0781 13.8281C14.7591 13.418 14.3148 13.0599 13.7451 12.7539C13.1754 12.4479 12.5488 12.2949 11.8652 12.2949C11.1621 12.2949 10.524 12.4544 9.95113 12.7734C9.37821 13.0924 8.93225 13.4635 8.61324 13.8867C8.56767 13.9648 8.55302 14.0462 8.5693 14.1309C8.58557 14.2155 8.63277 14.2936 8.7109 14.3652L11.0839 16.6504C11.2727 16.8327 11.4225 16.9564 11.5332 17.0215C11.6439 17.0866 11.7545 17.1191 11.8652 17.1191ZM6.1523 11.8066C6.25646 11.9043 6.3704 11.9482 6.4941 11.9385C6.6178 11.9287 6.72847 11.8717 6.82613 11.7676C7.41207 11.1165 8.15426 10.5794 9.05269 10.1562C9.95113 9.73307 10.8886 9.52474 11.8652 9.53125C12.8548 9.52474 13.7988 9.73796 14.6972 10.1709C15.5957 10.6038 16.3444 11.1458 16.9433 11.7969C17.0344 11.8946 17.137 11.9434 17.2509 11.9434C17.3648 11.9434 17.4739 11.8946 17.5781 11.7969L19.0917 10.293C19.1698 10.2148 19.2122 10.1253 19.2187 10.0244C19.2252 9.9235 19.1927 9.83073 19.121 9.7461C18.6327 9.14062 18.0159 8.60026 17.2705 8.125C16.525 7.64974 15.6917 7.27376 14.7705 6.99707C13.8492 6.72037 12.8808 6.58203 11.8652 6.58203C10.8496 6.58203 9.88114 6.72037 8.95992 6.99707C8.03869 7.27376 7.20698 7.64974 6.4648 8.125C5.72261 8.60026 5.10412 9.14062 4.60933 9.7461C4.53771 9.83073 4.50516 9.92187 4.51168 10.0195C4.51818 10.1172 4.5605 10.2083 4.63863 10.293L6.1523 11.8066ZM2.09957 7.72461C2.19071 7.82227 2.29976 7.86947 2.42672 7.86621C2.55367 7.86295 2.66272 7.8125 2.75387 7.71485C3.95178 6.43881 5.3271 5.47038 6.87984 4.80957C8.43257 4.14876 10.0944 3.81836 11.8652 3.81836C13.6491 3.81836 15.319 4.15039 16.8749 4.81446C18.4309 5.47852 19.8046 6.44857 20.996 7.72461C21.0872 7.81575 21.193 7.8597 21.3134 7.85645C21.4339 7.85319 21.5397 7.80274 21.6308 7.70508L22.9785 6.35743C23.0631 6.26628 23.107 6.17188 23.1103 6.07422C23.1136 5.97656 23.0794 5.88542 23.0078 5.80079C22.2461 4.85677 21.2825 4.0153 20.1171 3.27637C18.9518 2.53743 17.6627 1.95475 16.2499 1.52832C14.8372 1.10189 13.3756 0.888672 11.8652 0.888672C10.3548 0.888672 8.89319 1.10026 7.48043 1.52344C6.06767 1.94662 4.7786 2.5293 3.61324 3.27149C2.44787 4.01367 1.48433 4.85677 0.722614 5.80079C0.65751 5.88542 0.626585 5.97656 0.629841 6.07422C0.633096 6.17188 0.673786 6.26628 0.751911 6.35743L2.09957 7.72461Z" fill="white"/>
</g>
<defs>
<clipPath id="clip0_2_16690">
<rect width="22.4809" height="16.2402" fill="white" transform="translate(0.629608 0.878906)"/>
</clipPath>
</defs>
</svg>
