<svg width="1044" height="240" viewBox="0 0 1044 240" preserveAspectRatio="none" fill="none" xmlns="http://www.w3.org/2000/svg">
<path d="M127.483 115.52C93.2354 131.621 28.8912 144.001 1 148.178V240H1044V91.9769C886.382 91.9769 884.437 188.43 794.925 188.43C705.414 188.43 701.522 84.5901 656.767 84.5901C612.011 84.5901 623.687 163.367 520.554 159.95C417.422 156.532 366.828 122.735 304.56 91.9769C242.626 61.3839 171.068 95.0283 128.177 115.194L127.483 115.52Z" fill="url(#paint0_linear_1_296)"/>
<path d="M1 148.178C28.8912 144.001 93.2354 131.621 127.483 115.52C170.293 95.3945 242.291 61.2183 304.56 91.9769C366.828 122.735 417.422 156.532 520.554 159.95C623.687 163.367 612.011 85.0819 656.767 85.0819C701.522 85.0819 705.414 188.43 794.925 188.43C884.437 188.43 886.382 91.9769 1044 91.9769" stroke="#679CF6" stroke-width="3"/>
<defs>
<linearGradient id="paint0_linear_1_296" x1="522.5" y1="79.6724" x2="522.5" y2="240" gradientUnits="userSpaceOnUse">
<stop stop-color="#4285F4" stop-opacity="0.25"/>
<stop offset="1" stop-color="#4285F4" stop-opacity="0"/>
</linearGradient>
</defs>
</svg>
