<svg width="1044" height="242" viewBox="0 0 1044 242" preserveAspectRatio="none" fill="none" xmlns="http://www.w3.org/2000/svg">
<path d="M1 136.467C29.2692 131.132 204.573 147.139 239.285 126.576C282.674 100.872 317.03 18.3263 356.129 64.69C398.053 114.404 468.94 -41.8767 527.044 14.4136C553.295 39.8459 609.837 118.038 665.654 118.038C711.016 118.038 710.952 44.4106 801.677 44.4106C892.401 44.4106 884.246 136.467 1044 136.467" stroke="#20C997" stroke-width="3"/>
<path d="M239.285 126.576C204.573 147.139 29.2692 131.132 1 136.467V242H1044V136.467C884.246 136.467 892.401 44.4106 801.677 44.4106C710.952 44.4106 711.016 118.038 665.654 118.038C609.837 118.038 553.295 39.8459 527.044 14.4136C468.94 -41.8767 398.053 114.404 356.129 64.69C317.03 18.3263 282.674 100.872 239.285 126.576Z" fill="url(#paint0_linear_1_297)"/>
<defs>
<linearGradient id="paint0_linear_1_297" x1="522.5" y1="2" x2="522.5" y2="242" gradientUnits="userSpaceOnUse">
<stop stop-color="#20C997" stop-opacity="0.13"/>
<stop offset="1" stop-color="#20C997" stop-opacity="0"/>
</linearGradient>
</defs>
</svg>
