<svg width="24" height="24" viewBox="0 0 24 24" fill="none" xmlns="http://www.w3.org/2000/svg">
<path fill-rule="evenodd" clip-rule="evenodd" d="M5.02246 4.948C5.02246 4.80993 5.13439 4.698 5.27246 4.698H9.27246C9.41053 4.698 9.52246 4.80993 9.52246 4.948V8.948C9.52246 9.08607 9.41053 9.198 9.27246 9.198H5.27246C5.13439 9.198 5.02246 9.08607 5.02246 8.948V4.948ZM5.27246 3.198C4.30596 3.198 3.52246 3.9815 3.52246 4.948V8.948C3.52246 9.9145 4.30596 10.698 5.27246 10.698H9.27246C10.239 10.698 11.0225 9.9145 11.0225 8.948V4.948C11.0225 3.9815 10.239 3.198 9.27246 3.198H5.27246ZM15.0225 4.948C15.0225 4.80993 15.1344 4.698 15.2725 4.698H19.2725C19.4105 4.698 19.5225 4.80993 19.5225 4.948V8.948C19.5225 9.08607 19.4105 9.198 19.2725 9.198H15.2725C15.1344 9.198 15.0225 9.08607 15.0225 8.948V4.948ZM15.2725 3.198C14.306 3.198 13.5225 3.9815 13.5225 4.948V8.948C13.5225 9.9145 14.306 10.698 15.2725 10.698H19.2725C20.239 10.698 21.0225 9.9145 21.0225 8.948V4.948C21.0225 3.9815 20.239 3.198 19.2725 3.198H15.2725ZM5.27246 14.698C5.13439 14.698 5.02246 14.8099 5.02246 14.948V18.948C5.02246 19.0861 5.13439 19.198 5.27246 19.198H9.27246C9.41053 19.198 9.52246 19.0861 9.52246 18.948V14.948C9.52246 14.8099 9.41053 14.698 9.27246 14.698H5.27246ZM3.52246 14.948C3.52246 13.9815 4.30596 13.198 5.27246 13.198H9.27246C10.239 13.198 11.0225 13.9815 11.0225 14.948V18.948C11.0225 19.9145 10.239 20.698 9.27246 20.698H5.27246C4.30596 20.698 3.52246 19.9145 3.52246 18.948V14.948ZM15.0225 14.948C15.0225 14.8099 15.1344 14.698 15.2725 14.698H19.2725C19.4105 14.698 19.5225 14.8099 19.5225 14.948V18.948C19.5225 19.0861 19.4105 19.198 19.2725 19.198H15.2725C15.1344 19.198 15.0225 19.0861 15.0225 18.948V14.948ZM15.2725 13.198C14.306 13.198 13.5225 13.9815 13.5225 14.948V18.948C13.5225 19.9145 14.306 20.698 15.2725 20.698H19.2725C20.239 20.698 21.0225 19.9145 21.0225 18.948V14.948C21.0225 13.9815 20.239 13.198 19.2725 13.198H15.2725Z" fill="#5F6980"/>
</svg>
