<svg width="24" height="24" viewBox="0 0 24 24" fill="none" xmlns="http://www.w3.org/2000/svg">
<path fill-rule="evenodd" clip-rule="evenodd" d="M16.2822 3C16.2822 2.58579 15.9464 2.25 15.5322 2.25C15.118 2.25 14.7822 2.58579 14.7822 3V4.25H8.28223V3C8.28223 2.58579 7.94644 2.25 7.53223 2.25C7.11801 2.25 6.78223 2.58579 6.78223 3V4.25H5.53223C4.01344 4.25 2.78223 5.48122 2.78223 7V11V19C2.78223 20.5188 4.01344 21.75 5.53223 21.75H17.5322C19.051 21.75 20.2822 20.5188 20.2822 19V11V7C20.2822 5.48122 19.051 4.25 17.5322 4.25H16.2822V3ZM18.7822 10.25V7C18.7822 6.30964 18.2226 5.75 17.5322 5.75H16.2822V7C16.2822 7.41421 15.9464 7.75 15.5322 7.75C15.118 7.75 14.7822 7.41421 14.7822 7V5.75H8.28223V7C8.28223 7.41421 7.94644 7.75 7.53223 7.75C7.11801 7.75 6.78223 7.41421 6.78223 7V5.75H5.53223C4.84187 5.75 4.28223 6.30964 4.28223 7V10.25H18.7822ZM4.28223 11.75H18.7822V19C18.7822 19.6904 18.2226 20.25 17.5322 20.25H5.53223C4.84187 20.25 4.28223 19.6904 4.28223 19V11.75Z" fill="#5F6980"/>
</svg>
