<svg width="24" height="24" viewBox="0 0 24 24" fill="none" xmlns="http://www.w3.org/2000/svg">
<path d="M8.99878 17V18C8.99878 18.7956 9.31485 19.5587 9.87746 20.1213C10.4401 20.6839 11.2031 21 11.9988 21C12.7944 21 13.5575 20.6839 14.1201 20.1213C14.6827 19.5587 14.9988 18.7956 14.9988 18V17M9.99878 5C9.99878 4.46957 10.2095 3.96086 10.5846 3.58579C10.9596 3.21071 11.4683 3 11.9988 3C12.5292 3 13.0379 3.21071 13.413 3.58579C13.7881 3.96086 13.9988 4.46957 13.9988 5C15.1472 5.54303 16.1262 6.38833 16.8308 7.4453C17.5355 8.50227 17.9392 9.73107 17.9988 11V14C18.074 14.6217 18.2942 15.2171 18.6416 15.7381C18.989 16.2592 19.4538 16.6914 19.9988 17H3.99878C4.54372 16.6914 5.00859 16.2592 5.35597 15.7381C5.70334 15.2171 5.92352 14.6217 5.99878 14V11C6.05834 9.73107 6.46208 8.50227 7.16673 7.4453C7.87138 6.38833 8.85037 5.54303 9.99878 5Z" stroke="#5F6980" stroke-width="1.38462" stroke-linecap="round" stroke-linejoin="round"/>
</svg>
