<svg width="20" height="20" viewBox="0 0 20 20" fill="none" xmlns="http://www.w3.org/2000/svg">
<path fill-rule="evenodd" clip-rule="evenodd" d="M4.13803 8.50991C4.13803 6.14303 6.05677 4.22429 8.42366 4.22429C10.7905 4.22429 12.7093 6.14303 12.7093 8.50991C12.7093 10.8768 10.7905 12.7955 8.42366 12.7955C6.05677 12.7955 4.13803 10.8768 4.13803 8.50991ZM8.42366 2.97429C5.36642 2.97429 2.88803 5.45267 2.88803 8.50991C2.88803 11.5672 5.36642 14.0455 8.42366 14.0455C9.7271 14.0455 10.9253 13.595 11.8711 12.8413L15.6982 16.6683C15.9422 16.9124 16.338 16.9124 16.5821 16.6683C16.8261 16.4242 16.8261 16.0285 16.5821 15.7844L12.755 11.9574C13.5088 11.0116 13.9593 9.81335 13.9593 8.50991C13.9593 5.45267 11.4809 2.97429 8.42366 2.97429Z" fill="#282828"/>
</svg>
