<svg width="20" height="20" viewBox="0 0 20 20" fill="none" xmlns="http://www.w3.org/2000/svg">
<path fill-rule="evenodd" clip-rule="evenodd" d="M3.39934 5.44301C3.52954 5.01621 3.92643 4.70572 4.39583 4.70572H16.0625C16.5319 4.70572 16.9288 5.0162 17.059 5.44301L10.2292 9.99623L3.39934 5.44301ZM2.10419 5.73594C2.10408 5.74261 2.10407 5.74927 2.10417 5.75593V14.0807C2.10417 15.3464 3.13018 16.3724 4.39583 16.3724H16.0625C17.3282 16.3724 18.3542 15.3464 18.3542 14.0807V5.75586M17.1042 6.91521V14.0807C17.1042 14.656 16.6378 15.1224 16.0625 15.1224H4.39583C3.82054 15.1224 3.35417 14.656 3.35417 14.0807V6.91521L9.88248 11.2674C10.0924 11.4074 10.3659 11.4074 10.5759 11.2674L17.1042 6.91521ZM18.3541 5.73603C18.348 4.4756 17.3244 3.45572 16.0625 3.45572H4.39583C3.134 3.45572 2.11036 4.47555 2.10419 5.73594" fill="#5F6980"/>
</svg>
