<svg width="20" height="20" viewBox="0 0 20 20" fill="none" xmlns="http://www.w3.org/2000/svg">
<path fill-rule="evenodd" clip-rule="evenodd" d="M4.18489 4.12371C4.18489 4.00865 4.27817 3.91537 4.39323 3.91537H7.72656C7.84162 3.91537 7.93489 4.00865 7.93489 4.12371V7.45704C7.93489 7.5721 7.84162 7.66537 7.72656 7.66537H4.39323C4.27817 7.66537 4.18489 7.5721 4.18489 7.45704V4.12371ZM4.39323 2.66537C3.58781 2.66537 2.93489 3.31829 2.93489 4.12371V7.45704C2.93489 8.26246 3.58781 8.91537 4.39323 8.91537H7.72656C8.53198 8.91537 9.18489 8.26246 9.18489 7.45704V4.12371C9.18489 3.31829 8.53198 2.66537 7.72656 2.66537H4.39323ZM12.5182 4.12371C12.5182 4.00865 12.6115 3.91537 12.7266 3.91537H16.0599C16.175 3.91537 16.2682 4.00865 16.2682 4.12371V7.45704C16.2682 7.5721 16.175 7.66537 16.0599 7.66537H12.7266C12.6115 7.66537 12.5182 7.5721 12.5182 7.45704V4.12371ZM12.7266 2.66537C11.9211 2.66537 11.2682 3.31829 11.2682 4.12371V7.45704C11.2682 8.26246 11.9211 8.91537 12.7266 8.91537H16.0599C16.8653 8.91537 17.5182 8.26246 17.5182 7.45704V4.12371C17.5182 3.31829 16.8653 2.66537 16.0599 2.66537H12.7266ZM4.39323 12.2487C4.27817 12.2487 4.18489 12.342 4.18489 12.457V15.7904C4.18489 15.9054 4.27817 15.9987 4.39323 15.9987H7.72656C7.84162 15.9987 7.93489 15.9054 7.93489 15.7904V12.457C7.93489 12.342 7.84162 12.2487 7.72656 12.2487H4.39323ZM2.93489 12.457C2.93489 11.6516 3.58781 10.9987 4.39323 10.9987H7.72656C8.53198 10.9987 9.18489 11.6516 9.18489 12.457V15.7904C9.18489 16.5958 8.53198 17.2487 7.72656 17.2487H4.39323C3.58781 17.2487 2.93489 16.5958 2.93489 15.7904V12.457ZM12.5182 12.457C12.5182 12.342 12.6115 12.2487 12.7266 12.2487H16.0599C16.175 12.2487 16.2682 12.342 16.2682 12.457V15.7904C16.2682 15.9054 16.175 15.9987 16.0599 15.9987H12.7266C12.6115 15.9987 12.5182 15.9054 12.5182 15.7904V12.457ZM12.7266 10.9987C11.9211 10.9987 11.2682 11.6516 11.2682 12.457V15.7904C11.2682 16.5958 11.9211 17.2487 12.7266 17.2487H16.0599C16.8653 17.2487 17.5182 16.5958 17.5182 15.7904V12.457C17.5182 11.6516 16.8653 10.9987 16.0599 10.9987H12.7266Z" fill="#5F6980"/>
</svg>
