<svg width="21" height="20" viewBox="0 0 21 20" fill="none" xmlns="http://www.w3.org/2000/svg">
<path fill-rule="evenodd" clip-rule="evenodd" d="M10.7096 6.45799C10.7096 5.53751 11.4558 4.79132 12.3763 4.79132C13.2968 4.79132 14.043 5.53751 14.043 6.45799C14.043 7.37846 13.2968 8.12465 12.3763 8.12465C11.4558 8.12465 10.7096 7.37846 10.7096 6.45799ZM9.52676 7.08299H3.41797C3.07279 7.08299 2.79297 6.80317 2.79297 6.45799C2.79297 6.11281 3.07279 5.83299 3.41797 5.83299H9.52676C9.81287 4.52249 10.98 3.54132 12.3763 3.54132C13.7726 3.54132 14.9397 4.52249 15.2258 5.83299H18.418C18.7631 5.83299 19.043 6.11281 19.043 6.45799C19.043 6.80317 18.7631 7.08299 18.418 7.08299H15.2258C14.9397 8.39348 13.7726 9.37465 12.3763 9.37465C10.98 9.37465 9.81287 8.39348 9.52676 7.08299ZM5.70964 13.1247C5.70964 12.2042 6.45583 11.458 7.3763 11.458C8.29678 11.458 9.04297 12.2042 9.04297 13.1247C9.04297 14.0451 8.29678 14.7913 7.3763 14.7913C6.45583 14.7913 5.70964 14.0451 5.70964 13.1247ZM7.3763 16.0413C5.98 16.0413 4.81287 15.0601 4.52676 13.7497H3.41797C3.07279 13.7497 2.79297 13.4698 2.79297 13.1247C2.79297 12.7795 3.07279 12.4997 3.41797 12.4997H4.52676C4.81287 11.1892 5.98 10.208 7.3763 10.208C8.7726 10.208 9.93973 11.1892 10.2258 12.4997H18.418C18.7631 12.4997 19.043 12.7795 19.043 13.1247C19.043 13.4698 18.7631 13.7497 18.418 13.7497H10.2258C9.93973 15.0601 8.7726 16.0413 7.3763 16.0413Z" fill="#5F6980"/>
</svg>
