<svg width="21" height="20" viewBox="0 0 21 20" fill="none" xmlns="http://www.w3.org/2000/svg">
<path fill-rule="evenodd" clip-rule="evenodd" d="M5.14063 2.66534C4.53284 2.66534 3.94995 2.90679 3.52017 3.33656C3.0904 3.76633 2.84896 4.34922 2.84896 4.95701V14.957C2.84896 15.5648 3.0904 16.1477 3.52017 16.5775C3.94994 17.0072 4.53284 17.2487 5.14063 17.2487H10.974C11.5817 17.2487 12.1646 17.0072 12.5944 16.5775C13.0242 16.1477 13.2656 15.5648 13.2656 14.957V13.2903C13.2656 12.9452 12.9858 12.6653 12.6406 12.6653C12.2954 12.6653 12.0156 12.9452 12.0156 13.2903V14.957C12.0156 15.2333 11.9059 15.4982 11.7105 15.6936C11.5152 15.8889 11.2502 15.9987 10.974 15.9987H5.14063C4.86436 15.9987 4.59941 15.8889 4.40406 15.6936C4.20871 15.4982 4.09896 15.2333 4.09896 14.957V4.95701C4.09896 4.68074 4.20871 4.41579 4.40406 4.22044C4.59941 4.02509 4.86436 3.91534 5.14063 3.91534H10.974C11.2502 3.91534 11.5152 4.02509 11.7105 4.22044C11.9059 4.41579 12.0156 4.68074 12.0156 4.95701V6.62368C12.0156 6.96886 12.2954 7.24868 12.6406 7.24868C12.9858 7.24868 13.2656 6.96886 13.2656 6.62368V4.95701C13.2656 4.34922 13.0242 3.76633 12.5944 3.33656C12.1646 2.90679 11.5817 2.66534 10.974 2.66534H5.14063ZM16.4159 7.01507C16.1718 6.77099 15.7761 6.77099 15.532 7.01507C15.2879 7.25915 15.2879 7.65487 15.532 7.89895L16.9651 9.33201H6.80729C6.46212 9.33201 6.18229 9.61183 6.18229 9.95701C6.18229 10.3022 6.46212 10.582 6.80729 10.582H16.9651L15.532 12.0151C15.2879 12.2591 15.2879 12.6549 15.532 12.899C15.7761 13.143 16.1718 13.143 16.4159 12.899L18.9126 10.4022C18.9246 10.3904 18.9362 10.378 18.9473 10.3652C19.03 10.2695 19.0789 10.1547 19.0939 10.0363C19.099 9.99645 19.1002 9.95638 19.0977 9.91666C19.0883 9.77041 19.0277 9.62684 18.9159 9.51507L16.4159 7.01507Z" fill="#5F6980"/>
</svg>
