<svg width="20" height="20" viewBox="0 0 20 20" fill="none" xmlns="http://www.w3.org/2000/svg">
<path fill-rule="evenodd" clip-rule="evenodd" d="M6.94531 6.66698C6.94531 5.17121 8.15787 3.95865 9.65364 3.95865C11.1494 3.95865 12.362 5.17121 12.362 6.66698C12.362 8.16275 11.1494 9.37532 9.65364 9.37532C8.15787 9.37532 6.94531 8.16275 6.94531 6.66698ZM9.65364 2.70865C7.46752 2.70865 5.69531 4.48085 5.69531 6.66698C5.69531 8.85311 7.46752 10.6253 9.65364 10.6253C11.8398 10.6253 13.612 8.85311 13.612 6.66698C13.612 4.48085 11.8398 2.70865 9.65364 2.70865ZM6.0719 13.8323C6.57981 13.3244 7.26868 13.0391 7.98698 13.0391H11.3203C12.0386 13.0391 12.7275 13.3244 13.2354 13.8323C13.7433 14.3402 14.0286 15.0291 14.0286 15.7474V17.4141C14.0286 17.7592 14.3085 18.0391 14.6536 18.0391C14.9988 18.0391 15.2786 17.7592 15.2786 17.4141V15.7474C15.2786 14.6976 14.8616 13.6908 14.1193 12.9484C13.3769 12.2061 12.3701 11.7891 11.3203 11.7891H7.98698C6.93716 11.7891 5.93034 12.2061 5.18801 12.9484C4.44568 13.6908 4.02864 14.6976 4.02864 15.7474V17.4141C4.02864 17.7592 4.30847 18.0391 4.65364 18.0391C4.99882 18.0391 5.27864 17.7592 5.27864 17.4141V15.7474C5.27864 15.0291 5.56399 14.3402 6.0719 13.8323Z" fill="#5F6980"/>
</svg>
