<svg width="21" height="20" viewBox="0 0 21 20" fill="none" xmlns="http://www.w3.org/2000/svg">
<path fill-rule="evenodd" clip-rule="evenodd" d="M10.918 2.03101C10.8055 2.03101 10.6935 2.03334 10.5822 2.03795C10.5112 2.02551 10.4387 2.0298 10.3706 2.04951C6.22474 2.33077 2.94897 5.78284 2.94897 10C2.94897 14.2172 6.22474 17.6692 10.3706 17.9505C10.4387 17.9702 10.5112 17.9745 10.5822 17.9621C10.6935 17.9667 10.8055 17.969 10.918 17.969C11.0304 17.969 11.1423 17.9667 11.2535 17.9621C11.3245 17.9745 11.3969 17.9702 11.465 17.9505C15.611 17.6694 18.887 14.2173 18.887 10C18.887 5.78272 15.611 2.33057 11.465 2.04949C11.3969 2.0298 11.3245 2.02552 11.2535 2.03795C11.1423 2.03334 11.0304 2.03101 10.918 2.03101ZM11.0726 2.97067C11.0212 2.96956 10.9697 2.969 10.918 2.969C10.8662 2.969 10.8146 2.96956 10.763 2.97067C9.99862 4.24888 9.45997 5.62086 9.14708 7.03123H12.6886C12.3757 5.62086 11.837 4.24888 11.0726 2.97067ZM12.8626 7.96922H8.97303C8.77145 9.31543 8.77147 10.685 8.9731 12.0312H12.8626C13.0642 10.685 13.0642 9.31543 12.8626 7.96922ZM13.8104 12.0312C13.9989 10.684 13.9989 9.31641 13.8104 7.96922H17.6512C17.8449 8.61217 17.949 9.29393 17.949 10C17.949 10.7062 17.8449 11.3881 17.6511 12.0312H13.8104ZM12.6885 12.9692H9.14718C9.46008 14.3794 9.9987 15.7513 10.763 17.0293C10.8145 17.0304 10.8662 17.031 10.918 17.031C10.9697 17.031 11.0212 17.0304 11.0726 17.0293C11.837 15.7513 12.3756 14.3794 12.6885 12.9692ZM12.2174 16.9112C12.8896 15.657 13.3664 14.3287 13.6478 12.9692H17.2931C16.3499 14.991 14.4732 16.4897 12.2174 16.9112ZM13.6479 7.03123C13.3665 5.67164 12.8896 4.34312 12.2174 3.08883C14.4734 3.51036 16.3501 5.00926 17.2933 7.03123H13.6479ZM9.61826 16.9111C8.94608 15.657 8.46928 14.3286 8.18787 12.9692H4.54283C5.48602 14.9909 7.36254 16.4895 9.61826 16.9111ZM8.02531 12.0312C7.83674 10.684 7.83672 9.31641 8.02525 7.96922H4.18469C3.99104 8.61217 3.88697 9.29393 3.88697 10C3.88697 10.7062 3.99109 11.3881 4.18483 12.0312H8.02531ZM8.18778 7.03123C8.46918 5.67166 8.94601 4.34316 9.61826 3.08889C7.36237 3.5105 5.48575 5.00936 4.54263 7.03123H8.18778Z" fill="#5F6980"/>
</svg>
