<svg width="18" height="28" viewBox="0 0 18 28" fill="none" xmlns="http://www.w3.org/2000/svg">
<path d="M4.53131 27.75C6.99806 27.75 9.00006 25.748 9.00006 23.2812V18.8125H4.53131C2.06456 18.8125 0.062561 20.8145 0.062561 23.2812C0.062561 25.748 2.06456 27.75 4.53131 27.75Z" fill="#0ACF83"/>
<path d="M0.062561 14.3438C0.062561 11.877 2.06456 9.875 4.53131 9.875H9.00006V18.8125H4.53131C2.06456 18.8125 0.062561 16.8105 0.062561 14.3438Z" fill="#A259FF"/>
<path d="M0.062561 5.40625C0.062561 2.9395 2.06456 0.9375 4.53131 0.9375H9.00006V9.875H4.53131C2.06456 9.875 0.062561 7.873 0.062561 5.40625Z" fill="#F24E1E"/>
<path d="M9.00006 0.9375H13.4688C15.9356 0.9375 17.9376 2.9395 17.9376 5.40625C17.9376 7.873 15.9356 9.875 13.4688 9.875H9.00006V0.9375Z" fill="#FF7262"/>
<path d="M17.9376 14.3438C17.9376 16.8105 15.9356 18.8125 13.4688 18.8125C11.0021 18.8125 9.00006 16.8105 9.00006 14.3438C9.00006 11.877 11.0021 9.875 13.4688 9.875C15.9356 9.875 17.9376 11.877 17.9376 14.3438Z" fill="#1ABCFE"/>
</svg>
