<svg width="26" height="20" viewBox="0 0 26 20" fill="none" xmlns="http://www.w3.org/2000/svg">
<path d="M4.23824 13.7905L2.91299 14.2687L2.84247 18.1621L7.42977 16.507C5.85506 15.9862 4.70665 15.0682 4.23824 13.7905Z" fill="#FDBD39"/>
<path d="M4.93204 9.67249L0.33316 11.3317L2.91312 14.2696L4.23837 13.7914C3.77101 12.5179 4.05942 11.0801 4.93204 9.67249Z" fill="#F69833"/>
<path d="M12.6701 4.0535C6.8144 6.16598 3.03867 10.5261 4.23865 13.7905L25.4436 6.13999C24.2436 2.87562 18.5258 1.94101 12.6701 4.0535Z" fill="#FECF33"/>
<path d="M17.0108 15.878C22.8665 13.7655 26.6486 9.42512 25.4423 6.14099L4.2373 13.7904C5.4436 17.0756 11.1551 17.9905 17.0108 15.878Z" fill="#EE6723"/>
<path d="M25.4421 6.14001L4.23819 13.7905C4.65292 14.9216 6.23711 15.4788 8.45813 15.4788C10.6244 15.4788 13.397 14.9497 16.2875 13.9069C22.1432 11.7944 26.2621 8.37309 25.4421 6.14001" fill="#F69833"/>
<path d="M21.2222 4.45264C19.057 4.45264 16.2833 4.9818 13.3928 6.02453C7.53713 8.13701 3.41824 11.5573 4.23823 13.7904L25.4432 6.13992C25.0274 5.00883 23.4443 4.45264 21.2222 4.45264" fill="#FDBD39"/>
<path fill-rule="evenodd" clip-rule="evenodd" d="M17.3151 16.7149C18.5067 17.8127 19.4267 18.3689 20.0509 18.3689C20.2162 18.3731 20.3783 18.3263 20.514 18.2348C21.2814 17.7025 20.6962 15.9029 20.0709 14.487L20.0214 14.3768L19.9151 14.4361C19.8351 14.4818 19.7488 14.5286 19.6604 14.5764L19.572 14.6242L19.613 14.7157C20.4951 16.7138 20.4951 17.6401 20.2267 17.8262C20.1804 17.8584 20.1193 17.874 20.0435 17.874C19.8235 17.874 19.1509 17.7254 17.6583 16.35C16.2731 15.0744 14.6836 13.201 13.1805 11.0729C11.6784 8.94588 10.4458 6.82403 9.71 5.09828C8.91843 3.24258 8.93527 2.37762 9.19001 2.20089C9.23316 2.17074 9.29316 2.15619 9.36895 2.15619C9.63421 2.15619 10.4489 2.35475 12.3015 4.19798L12.47 4.36536L12.4889 4.12937C12.4984 4.00981 12.5089 3.88922 12.5205 3.76862L12.5257 3.71664L12.4879 3.68025C10.7689 2.00856 9.83842 1.65821 9.36158 1.65821C9.19737 1.65406 9.03632 1.70084 8.90054 1.79232C8.31423 2.19985 8.43107 3.37669 9.24685 5.29165C9.99631 7.04963 11.2468 9.2037 12.7689 11.3588C14.292 13.5139 15.9057 15.4164 17.3151 16.7149Z" fill="#EE6723"/>
<path d="M17.1531 15.8177L17.1447 15.9258C16.9963 17.7347 16.6068 19.9096 15.59 19.9979C15.5689 20 15.5479 20 15.5279 20C14.8373 20 14.1837 19.0228 13.5868 17.0964C13.0205 15.2729 12.5816 12.8257 12.3511 10.2048C12.1195 7.58395 12.1226 5.09824 12.3605 3.20511C12.6195 1.14253 13.1121 0.0654954 13.8258 0.00311883C13.8468 0.00103961 13.8689 0 13.89 0C14.391 0 15.1458 0.560349 15.9184 3.16977L15.4142 3.26541C15.1563 2.39422 14.8752 1.68521 14.5963 1.19659C14.3384 0.746439 14.0868 0.497973 13.89 0.497973C13.8837 0.497973 13.8774 0.497973 13.87 0.499012C13.5605 0.526042 13.11 1.26624 12.8595 3.26645C12.6258 5.12527 12.6226 7.57459 12.8511 10.1611C13.0795 12.7487 13.511 15.1596 14.0668 16.9498C14.3152 17.7513 14.5879 18.4125 14.8563 18.8606C15.1026 19.2744 15.3415 19.502 15.5279 19.502C15.5342 19.502 15.5405 19.502 15.5468 19.501C15.8426 19.476 16.4005 18.7046 16.6352 15.9923L17.1531 15.8177Z" fill="#EE6723"/>
</svg>
